<?xml version="1.0" encoding="UTF-8"?>
<!-- Generated by Pixelmator Pro 4.0 -->
<svg width="844" height="695" viewBox="0 0 844 695" xmlns="http://www.w3.org/2000/svg">
    <path id="Path" fill="#153576" stroke="none" d="M -292.709991 906.199951 L -214.679993 732.810059 L -182.970001 732.810059 L -104.700012 906.199951 L -138.390015 906.199951 L -205.519989 749.900024 L -192.640015 749.900024 L -259.519989 906.199951 L -292.709991 906.199951 Z M -256.790009 866.069946 L -248.119995 840.800049 L -154.48999 840.800049 L -145.820007 866.069946 L -256.790009 866.069946 Z"/>
    <path id="path1" fill="#153576" stroke="none" d="M -85.630005 906.199951 L -85.630005 773.930054 L -56.150024 773.930054 L -56.150024 809.599976 L -61.349976 798.699951 C -56.72998 790.280029 -50 783.800049 -41.159973 779.26001 C -32.330017 774.719971 -22.130005 772.449951 -10.570007 772.449951 C 0 772.449951 9.450012 774.52002 17.789978 778.640015 C 26.130005 782.77002 32.690002 789.089966 37.47998 797.589966 C 42.27002 806.099976 44.659973 817.030029 44.659973 830.410034 L 44.659973 906.209961 L 13.700012 906.209961 L 13.700012 834.380005 C 13.700012 822.660034 10.929993 813.910034 5.400024 808.119995 C -0.140015 802.339966 -7.849976 799.449951 -17.76001 799.449951 C -25.030029 799.449951 -31.469971 800.939941 -37.080017 803.910034 C -42.700012 806.880005 -47.030029 811.300049 -50.080017 817.160034 C -53.140015 823.02002 -54.659973 830.410034 -54.659973 839.329956 L -54.659973 906.209961 L -85.619995 906.209961 Z"/>
    <path id="path2" fill="#153576" stroke="none" d="M 140.27002 900.25 C 127.719971 900.25 116.369995 897.569946 106.210022 892.199951 C 96.049988 886.839966 88.039978 879.359985 82.179993 869.780029 C 76.320007 860.199951 73.390015 848.969971 73.390015 836.089966 C 73.390015 823.209961 76.320007 812.22998 82.179993 802.650024 C 88.039978 793.069946 96.049988 785.640015 106.210022 780.359985 C 116.369995 775.079956 127.719971 772.430054 140.27002 772.430054 C 151.5 772.430054 161.570007 774.660034 170.48999 779.119995 C 179.409973 783.579956 186.549988 790.51001 191.919983 799.930054 C 197.280029 809.339966 199.969971 821.400024 199.969971 836.089966 C 199.969971 850.780029 197.280029 862.880005 191.919983 872.380005 C 186.549988 881.880005 179.409973 888.890015 170.48999 893.430054 C 161.570007 897.969971 151.5 900.23999 140.27002 900.23999 Z M 144.23999 955.98999 C 132.02002 955.98999 120.090027 954.380005 108.450012 951.160034 C 96.809998 947.939941 87.27002 943.27002 79.840027 937.160034 L 93.710022 913.880005 C 99.48999 918.670044 106.799988 922.51001 115.630005 925.400024 C 124.460022 928.290039 133.419983 929.72998 142.51001 929.72998 C 157.039978 929.72998 167.690002 926.390015 174.460022 919.699951 C 181.22998 913.01001 184.619995 902.97998 184.619995 889.599976 L 184.619995 866.069946 L 187.099976 836.099976 L 186.109985 806.130005 L 186.109985 773.930054 L 215.590027 773.930054 L 215.590027 886.140015 C 215.590027 910.079956 209.47998 927.709961 197.26001 939.02002 C 185.039978 950.329956 167.369995 955.98999 144.25 955.98999 Z M 144.97998 874 C 152.73999 874 159.679993 872.390015 165.789978 869.170044 C 171.900024 865.949951 176.650024 861.48999 180.030029 855.790039 C 183.409973 850.089966 185.109985 843.530029 185.109985 836.099976 C 185.109985 828.670044 183.419983 822.099976 180.030029 816.410034 C 176.640015 810.709961 171.890015 806.339966 165.789978 803.280029 C 159.679993 800.22998 152.73999 798.699951 144.97998 798.699951 C 137.219971 798.699951 130.23999 800.22998 124.049988 803.280029 C 117.859985 806.339966 113.070007 810.709961 109.679993 816.410034 C 106.289978 822.109985 104.599976 828.670044 104.599976 836.099976 C 104.599976 843.530029 106.289978 850.099976 109.679993 855.790039 C 113.059998 861.48999 117.849976 865.949951 124.049988 869.170044 C 130.23999 872.390015 137.219971 874 144.97998 874 Z"/>
    <path id="path3" fill="#153576" stroke="none" d="M 256.200012 906.199951 L 256.200012 722.410034 L 287.159973 722.410034 L 287.159973 906.199951 L 256.200012 906.199951 Z"/>
    <path id="path4" fill="#153576" stroke="none" d="M 389.960022 907.930054 C 375.26001 907.930054 362.419983 905 351.440002 899.140015 C 340.460022 893.280029 331.950012 885.22998 325.929993 874.98999 C 319.900024 864.75 316.890015 853.109985 316.890015 840.060059 C 316.890015 827.01001 319.820007 815.170044 325.679993 805.01001 C 331.539978 794.849976 339.630005 786.890015 349.950012 781.109985 C 360.27002 775.329956 372.030029 772.439941 385.25 772.439941 C 398.469971 772.439941 409.609985 775.25 419.679993 780.859985 C 429.75 786.47998 437.679993 794.400024 443.460022 804.640015 C 449.23999 814.880005 452.130005 826.930054 452.130005 840.800049 C 452.130005 842.119995 452.089966 843.609985 452.01001 845.26001 C 451.920044 846.910034 451.800049 848.47998 451.640015 849.969971 L 341.409973 849.969971 L 341.409973 829.410034 L 435.289978 829.410034 L 423.150024 835.849976 C 423.309998 828.26001 421.73999 821.569946 418.440002 815.790039 C 415.140015 810.01001 410.640015 805.469971 404.940002 802.170044 C 399.23999 798.869995 392.679993 797.219971 385.25 797.219971 C 377.820007 797.219971 371.01001 798.869995 365.309998 802.170044 C 359.609985 805.47998 355.150024 810.060059 351.929993 815.920044 C 348.710022 821.780029 347.099976 828.680054 347.099976 836.599976 L 347.099976 841.550049 C 347.099976 849.47998 348.919983 856.5 352.549988 862.599976 C 356.179993 868.709961 361.299988 873.420044 367.909973 876.719971 C 374.51001 880.030029 382.109985 881.670044 390.700012 881.670044 C 398.130005 881.670044 404.820007 880.52002 410.76001 878.199951 C 416.710022 875.890015 421.98999 872.25 426.609985 867.300049 L 443.200012 886.369995 C 437.26001 893.310059 429.780029 898.630005 420.780029 902.349976 C 411.780029 906.069946 401.5 907.920044 389.940002 907.920044 Z"/>
    <path id="path5" fill="#153576" stroke="none" d="M 481.859985 906.199951 L 481.859985 773.930054 L 511.339966 773.930054 L 511.339966 810.339966 L 507.869995 799.689941 C 511.829956 790.77002 518.060059 784 526.569946 779.380005 C 535.069946 774.76001 545.680054 772.439941 558.400024 772.439941 L 558.400024 801.920044 C 557.079956 801.589966 555.839966 801.390015 554.680054 801.300049 C 553.52002 801.219971 552.369995 801.180054 551.209961 801.180054 C 539.47998 801.180054 530.160034 804.609985 523.219971 811.459961 C 516.280029 818.310059 512.819946 828.51001 512.819946 842.050049 L 512.819946 906.199951 L 481.859985 906.199951 Z"/>
    <path id="path6" fill="#06946a" stroke="none" d="M 586.390015 906.199951 L 586.390015 732.810059 L 657.72998 732.810059 C 673.089966 732.810059 686.25 735.290039 697.23999 740.23999 C 708.219971 745.189941 716.680054 752.300049 722.630005 761.540039 C 728.579956 770.790039 731.550049 781.77002 731.550049 794.47998 C 731.550049 807.189941 728.579956 818.180054 722.630005 827.420044 C 716.689941 836.670044 708.219971 843.77002 697.23999 848.719971 C 686.26001 853.670044 673.089966 856.150024 657.72998 856.150024 L 604.22998 856.150024 L 618.599976 841.040039 L 618.599976 906.189941 L 586.400024 906.189941 Z M 618.589966 844.52002 L 604.219971 828.910034 L 656.23999 828.910034 C 670.439941 828.910034 681.130005 825.900024 688.319946 819.869995 C 695.5 813.839966 699.099976 805.380005 699.099976 794.47998 C 699.099976 783.579956 695.51001 774.910034 688.319946 768.969971 C 681.140015 763.02002 670.439941 760.050049 656.23999 760.050049 L 604.219971 760.050049 L 618.589966 744.199951 L 618.589966 844.52002 Z"/>
    <path id="path7" fill="#06946a" stroke="none" d="M 799.410034 907.930054 C 789.5 907.930054 780.829956 906.22998 773.400024 902.849976 C 765.969971 899.469971 760.22998 894.76001 756.189941 888.72998 C 752.140015 882.699951 750.119995 875.890015 750.119995 868.290039 C 750.119995 860.689941 751.890015 854.170044 755.449951 848.22998 C 759 842.280029 764.819946 837.579956 772.910034 834.109985 C 781 830.640015 791.73999 828.910034 805.109985 828.910034 L 843.5 828.910034 L 843.5 849.469971 L 807.339966 849.469971 C 796.77002 849.469971 789.670044 851.170044 786.040039 854.550049 C 782.410034 857.939941 780.589966 862.099976 780.589966 867.060059 C 780.589966 872.680054 782.819946 877.130005 787.280029 880.439941 C 791.73999 883.73999 797.930054 885.390015 805.859985 885.390015 C 813.790039 885.390015 820.27002 883.660034 826.300049 880.189941 C 832.329956 876.719971 836.660034 871.609985 839.300049 864.829956 L 844.5 883.410034 C 841.530029 891.170044 836.199951 897.199951 828.52002 901.48999 C 820.839966 905.790039 811.140015 907.930054 799.410034 907.930054 Z M 841.02002 906.199951 L 841.02002 879.449951 L 839.290039 873.75 L 839.290039 826.930054 C 839.290039 817.849976 836.569946 810.790039 831.119995 805.75 C 825.670044 800.709961 817.410034 798.199951 806.349976 798.199951 C 798.920044 798.199951 791.609985 799.359985 784.430054 801.670044 C 777.25 803.97998 771.180054 807.209961 766.219971 811.329956 L 754.079956 788.790039 C 761.180054 783.339966 769.640015 779.25 779.469971 776.530029 C 789.290039 773.810059 799.48999 772.439941 810.060059 772.439941 C 829.209961 772.439941 844.030029 777.02002 854.52002 786.189941 C 865.01001 795.359985 870.25 809.52002 870.25 828.670044 L 870.25 906.199951 L 841.02002 906.199951 Z"/>
    <path id="path8" fill="#06946a" stroke="none" d="M 950.75 907.930054 C 939.680054 907.930054 929.079956 906.47998 918.920044 903.599976 C 908.76001 900.709961 900.709961 897.199951 894.77002 893.069946 L 906.660034 869.540039 C 912.599976 873.339966 919.699951 876.47998 927.959961 878.949951 C 936.219971 881.430054 944.469971 882.670044 952.72998 882.670044 C 962.469971 882.670044 969.530029 881.349976 973.910034 878.709961 C 978.280029 876.069946 980.469971 872.52002 980.469971 868.060059 C 980.469971 864.430054 978.97998 861.660034 976.01001 859.76001 C 973.040039 857.859985 969.160034 856.420044 964.369995 855.430054 C 959.579956 854.439941 954.25 853.530029 948.390015 852.709961 C 942.530029 851.890015 936.660034 850.77002 930.800049 849.369995 C 924.939941 847.969971 919.609985 845.900024 914.819946 843.180054 C 910.030029 840.459961 906.150024 836.780029 903.180054 832.160034 C 900.209961 827.540039 898.719971 821.430054 898.719971 813.829956 C 898.719971 805.410034 901.109985 798.099976 905.900024 791.910034 C 910.689941 785.719971 917.420044 780.930054 926.089966 777.540039 C 934.76001 774.160034 945.040039 772.459961 956.930054 772.459961 C 965.849976 772.459961 974.849976 773.449951 983.930054 775.430054 C 993.01001 777.410034 1000.530029 780.219971 1006.469971 783.849976 L 994.579956 807.380005 C 988.300049 803.579956 981.98999 800.97998 975.630005 799.579956 C 969.27002 798.180054 962.959961 797.469971 956.680054 797.469971 C 947.27002 797.469971 940.290039 798.880005 935.75 801.680054 C 931.209961 804.48999 928.939941 808.040039 928.939941 812.329956 C 928.939941 816.290039 930.430054 819.27002 933.400024 821.25 C 936.369995 823.22998 940.25 824.800049 945.040039 825.959961 C 949.829956 827.119995 955.150024 828.060059 961.02002 828.810059 C 966.880005 829.550049 972.699951 830.670044 978.47998 832.150024 C 984.26001 833.640015 989.579956 835.660034 994.459961 838.219971 C 999.329956 840.780029 1003.25 844.369995 1006.22998 849 C 1009.199951 853.619995 1010.689941 859.650024 1010.689941 867.079956 C 1010.689941 875.339966 1008.25 882.52002 1003.380005 888.630005 C 998.51001 894.73999 991.609985 899.48999 982.699951 902.869995 C 973.790039 906.25 963.130005 907.949951 950.75 907.949951 Z"/>
    <path id="path9" fill="#06946a" stroke="none" d="M 1078.319946 907.930054 C 1067.25 907.930054 1056.650024 906.47998 1046.48999 903.599976 C 1036.329956 900.709961 1028.280029 897.199951 1022.339966 893.069946 L 1034.22998 869.540039 C 1040.170044 873.339966 1047.27002 876.47998 1055.530029 878.949951 C 1063.790039 881.430054 1072.040039 882.670044 1080.300049 882.670044 C 1090.040039 882.670044 1097.099976 881.349976 1101.47998 878.709961 C 1105.849976 876.069946 1108.040039 872.52002 1108.040039 868.060059 C 1108.040039 864.430054 1106.550049 861.660034 1103.579956 859.76001 C 1100.609985 857.859985 1096.72998 856.420044 1091.939941 855.430054 C 1087.150024 854.439941 1081.819946 853.530029 1075.959961 852.709961 C 1070.099976 851.890015 1064.22998 850.77002 1058.369995 849.369995 C 1052.51001 847.969971 1047.180054 845.900024 1042.390015 843.180054 C 1037.599976 840.459961 1033.719971 836.780029 1030.75 832.160034 C 1027.780029 827.540039 1026.290039 821.430054 1026.290039 813.829956 C 1026.290039 805.410034 1028.680054 798.099976 1033.469971 791.910034 C 1038.26001 785.719971 1044.98999 780.930054 1053.660034 777.540039 C 1062.329956 774.160034 1072.609985 772.459961 1084.5 772.459961 C 1093.420044 772.459961 1102.420044 773.449951 1111.5 775.430054 C 1120.579956 777.410034 1128.099976 780.219971 1134.040039 783.849976 L 1122.150024 807.380005 C 1115.869995 803.579956 1109.560059 800.97998 1103.199951 799.579956 C 1096.839966 798.180054 1090.530029 797.469971 1084.25 797.469971 C 1074.839966 797.469971 1067.859985 798.880005 1063.319946 801.680054 C 1058.780029 804.48999 1056.51001 808.040039 1056.51001 812.329956 C 1056.51001 816.290039 1058 819.27002 1060.969971 821.25 C 1063.939941 823.22998 1067.819946 824.800049 1072.609985 825.959961 C 1077.400024 827.119995 1082.719971 828.060059 1088.589966 828.810059 C 1094.449951 829.550049 1100.27002 830.670044 1106.050049 832.150024 C 1111.829956 833.640015 1117.150024 835.660034 1122.030029 838.219971 C 1126.900024 840.780029 1130.819946 844.369995 1133.800049 849 C 1136.77002 853.619995 1138.26001 859.650024 1138.26001 867.079956 C 1138.26001 875.339966 1135.819946 882.52002 1130.949951 888.630005 C 1126.079956 894.73999 1119.180054 899.48999 1110.27002 902.869995 C 1101.359985 906.25 1090.699951 907.949951 1078.319946 907.949951 Z"/>
    <linearGradient id="linearGradient1" x1="612.58" y1="450.68" x2="613.57" y2="450.68" gradientUnits="userSpaceOnUse">
        <stop offset="1e-05" stop-color="#133678" stop-opacity="1"/>
        <stop offset="1" stop-color="#0a7f79" stop-opacity="1"/>
    </linearGradient>
    <path id="path10" fill="none" stroke="url(#linearGradient1)" stroke-width="0.79" d="M 613.430054 450.550049 L 612.719971 450.820068"/>
    <path id="path11" fill="#0f8b73" stroke="none" d="M 712.48999 335.5 L 712.51001 335.5 C 712.51001 335.5 711.089966 316.25 711.089966 316.25 L 693.219971 313.109985 L 693.219971 324.75 L 693.219971 324.75 C 686.920044 326.659912 682.339966 332.51001 682.339966 339.429932 C 682.339966 347.900024 689.209961 354.77002 697.680054 354.77002 C 706.150024 354.77002 713.02002 347.900024 713.02002 339.429932 C 713.02002 338.070068 712.829956 336.75 712.48999 335.5 Z"/>
    <linearGradient id="linearGradient2" x1="64.39" y1="345.25" x2="780.43" y2="345.25" gradientUnits="userSpaceOnUse">
        <stop offset="1e-05" stop-color="#133678" stop-opacity="1"/>
        <stop offset="1" stop-color="#0a7f79" stop-opacity="1"/>
    </linearGradient>
    <path id="path12" fill="url(#linearGradient2)" stroke="none" d="M 721.359985 303.97998 C 585.26001 260.320068 433.099976 395.570068 433.099976 395.570068 C 341.72998 467.469971 209.469971 492.300049 209.469971 492.300049 L 193.299988 476.800049 C 193.299988 476.800049 262.549988 446.02002 304.590027 365.98999 C 305.890015 363.52002 307.289978 361.099976 308.77002 358.73999 C 312.659973 352.51001 322.849976 331.719971 332.73999 273.77002 C 332.73999 273.77002 404.640015 262.929932 450.300049 207 C 450.300049 207 481.689941 177.349976 495.380005 135.669922 C 495.380005 135.669922 554.160034 147.080078 602.089966 113.97998 C 602.089966 113.97998 637.650024 89.929932 654.810059 66.719971 C 657.01001 63.75 660.670044 62.23999 664.310059 62.830078 C 681.869995 65.619995 729.859985 77.939941 727.060059 128.820068 C 727.060059 128.820068 723.640015 180.179932 646.030029 197.869995 C 646.030029 197.869995 543.339966 222.209961 511.349976 281.189941 C 511.349976 281.189941 502.790039 301.72998 502.790039 310.290039 L 517.060059 302.300049 C 517.060059 302.300049 527.329956 238.390015 648.880005 213.280029 C 648.880005 213.280029 728.199951 191.02002 739.050049 137.380005 C 739.050049 137.380005 754.119995 89.909912 702.22998 60.780029 C 697.300049 58.01001 692.180054 55.669922 686.930054 53.73999 L 631.099976 58.169922 C 628.880005 58.340088 626.670044 58.580078 624.469971 58.919922 C 449.960022 86.150024 265.969971 314.849976 265.969971 314.849976 C 200.619995 385.109985 75.679993 610.75 64.390015 631.219971 C 64.97998 631.689941 65.609985 632.150024 66.289978 632.579956 C 77.450012 639.819946 92.409973 637.369995 100.880005 627.119995 C 104.799988 622.390015 140.98999 546.539978 140.98999 546.539978 C 140.98999 546.539978 159.820007 587.060059 208.330017 559.670044 C 208.330017 559.670044 233.440002 543.690002 219.73999 507.73999 C 219.73999 507.73999 319.039978 495.189941 409.77002 431.840088 L 553.579956 341.109985 C 553.579956 341.109985 663.150024 276.640015 756.170044 341.109985 C 756.170044 341.109985 715.079956 396.459961 688.26001 403.880005 C 688.26001 403.880005 669.430054 414.150024 645.459961 389.609985 C 645.459961 389.609985 633.47998 369.640015 640.319946 347.949951 C 640.319946 347.949951 603.22998 383.330078 651.160034 419.849976 C 651.160034 419.849976 590.670044 445.530029 513.060059 424.419922 C 513.060059 424.419922 545.910034 452.859985 613.420044 450.540039 L 632.060059 443.349976 C 635.97998 441.840088 639.98999 440.560059 644.050049 439.469971 C 745.76001 412.369995 780.420044 335.640015 780.420044 335.640015 C 767.630005 324.929932 721.359985 303.969971 721.359985 303.969971 Z M 639.189941 66.040039 C 590.109985 135.090088 504.51001 125.390015 504.51001 125.390015 C 566.709961 81.449951 639.189941 66.040039 639.189941 66.040039 Z M 479.969971 139.090088 C 435.460022 244.090088 340.159973 260.070068 340.159973 260.070068 C 361.849976 227.540039 479.969971 139.090088 479.969971 139.090088 Z M 319.609985 284.609985 C 287.080017 420.429932 188.929993 464.939941 188.929993 464.939941 C 200.340027 426.709961 319.609985 284.609985 319.609985 284.609985 Z M 180.179993 542.429993 C 171.25 542.429993 164.01001 535.190002 164.01001 526.26001 C 164.01001 517.330017 171.25 510.090088 180.179993 510.090088 C 189.109985 510.090088 196.349976 517.330017 196.349976 526.26001 C 196.349976 535.190002 189.109985 542.429993 180.179993 542.429993 Z"/>
    <path id="path13" fill="#18719c" stroke="none" d="M 686.930054 54 L 631.099976 58.429932 C 628.880005 58.599976 626.660034 58.800049 624.469971 59.179932 C 466.349976 86.550049 265.969971 315.109985 265.969971 315.109985 C 200.619995 385.369995 75.679993 611.01001 64.390015 631.47998 C 60.030029 628.050049 57.960022 623.969971 57.059998 620.27002 C 55.960022 615.75 56.47998 610.97998 58.349976 606.709961 C 94.909973 523.179993 175.23999 414.400024 175.23999 414.400024 C 350.97998 141.320068 548.079956 68.929932 623.219971 50.560059 C 644.449951 45.369995 666.670044 46.540039 686.939941 53.98999 Z"/>
    <linearGradient id="linearGradient3" x1="193.31" y1="383.63" x2="801.83" y2="383.63" gradientUnits="userSpaceOnUse">
        <stop offset="1e-05" stop-color="#133678" stop-opacity="1"/>
        <stop offset="1" stop-color="#1a9372" stop-opacity="1"/>
    </linearGradient>
    <path id="path14" fill="url(#linearGradient3)" stroke="none" d="M 801.829956 327.97998 C 767.589966 411.869995 683.130005 438.689941 683.130005 438.689941 C 656.780029 446.429932 633.560059 449.859985 613.430054 450.550049 L 632.069946 443.359985 C 635.98999 441.849976 640 440.570068 644.060059 439.47998 C 745.77002 412.380005 780.430054 335.650024 780.430054 335.650024 C 770.390015 327.25 739.73999 312.530029 727.01001 306.580078 C 722.810059 304.619995 718.459961 303.01001 713.98999 301.790039 C 579.829956 265.159912 433.109985 395.570068 433.109985 395.570068 C 341.73999 467.469971 209.47998 492.300049 209.47998 492.300049 L 193.309998 476.800049 L 246.140015 463.390015 C 250.380005 462.380005 254.679993 461.72998 259.02002 461.27002 C 307.130005 456.130005 429.130005 377.060059 429.130005 377.060059 C 499.849976 316.570068 587.25 286.890015 587.25 286.890015 C 721.930054 244.659912 801.819946 327.97998 801.819946 327.97998 Z"/>
    <path id="path15" fill="#14647e" stroke="none" d="M 346.440002 284.609985 L 336.919983 323.669922 L 365.840027 398.050049 L 405.789978 371.419922 L 369.450012 277.830078 L 346.440002 284.609985 Z"/>
    <path id="path16" fill="#0d956f" stroke="none" d="M 346.440002 284.609985 L 385.070007 385.22998 L 405.789978 371.419922 L 369.450012 277.830078 L 346.440002 284.609985 Z"/>
    <linearGradient id="linearGradient4" x1="391.8" y1="533.17" x2="719.5" y2="533.17" gradientUnits="userSpaceOnUse">
        <stop offset="1e-05" stop-color="#134278" stop-opacity="1"/>
        <stop offset="1" stop-color="#108ca6" stop-opacity="1"/>
    </linearGradient>
    <path id="path17" fill="url(#linearGradient4)" stroke="none" d="M 717.939941 611.859985 C 709.670044 627.839966 651.73999 631.47998 651.73999 631.47998 C 607.22998 635.130005 551.02002 631.47998 551.02002 631.47998 C 454.290039 622.569946 391.799988 458.919922 391.799988 458.919922 L 432.030029 433.23999 C 434.859985 440.060059 437.73999 446.810059 440.700012 453.449951 L 420.619995 466.050049 C 420.619995 466.050049 464.73999 561.839966 503.359985 587.5 C 505.709961 589.060059 508 590.680054 510.23999 592.390015 C 522.959961 602.140015 569 632.670044 617.5 606.719971 C 617.5 606.719971 653.449951 585.319946 662.579956 557.359985 L 653.530029 540.450012 C 654.23999 538.859985 654.589966 537.950012 654.589966 537.950012 L 613.069946 543.659973 C 650.869995 530.820007 683.400024 456.919922 683.400024 456.919922 L 683.969971 533.169983 C 677.97998 596.01001 632.319946 618.709961 632.319946 618.709961 C 681.109985 623.560059 696.810059 606.160034 696.810059 606.160034 C 706.800049 599.030029 682.829956 589.609985 682.829956 589.609985 C 730.77002 594.75 717.930054 611.869995 717.930054 611.869995 Z"/>
    <linearGradient id="linearGradient5" x1="420.62" y1="535.19" x2="662.59" y2="535.19" gradientUnits="userSpaceOnUse">
        <stop offset="1e-05" stop-color="#0b8fa6" stop-opacity="1"/>
        <stop offset="1" stop-color="#108ca6" stop-opacity="1"/>
    </linearGradient>
    <path id="path18" fill="url(#linearGradient5)" stroke="none" d="M 662.589966 557.359985 C 653.459961 585.319946 617.51001 606.719971 617.51001 606.719971 C 569 632.670044 522.969971 602.140015 510.25 592.390015 C 508.01001 590.680054 505.719971 589.060059 503.369995 587.5 C 464.75 561.839966 420.630005 466.050049 420.630005 466.050049 L 440.710022 453.449951 C 450.290039 475.060059 460.609985 495.52002 472.310059 513.809998 C 473.97998 516.429993 475.72998 519.01001 477.089966 521.799988 C 492.390015 553.340027 524.689941 578.420044 529.339966 580.76001 C 609.170044 628.400024 646.939941 555.179993 653.540039 540.460022 L 662.589966 557.369995 Z"/>
    <linearGradient id="linearGradient6" x1="580.98" y1="617.62" x2="785.54" y2="617.62" gradientUnits="userSpaceOnUse">
        <stop offset="1e-05" stop-color="#0b8fa6" stop-opacity="1"/>
        <stop offset="1" stop-color="#108ca6" stop-opacity="1"/>
    </linearGradient>
    <path id="path19" fill="url(#linearGradient6)" stroke="none" d="M 704.619995 580.469971 C 704.619995 580.469971 771.959961 592.26001 747.609985 618.890015 C 747.609985 618.890015 719.079956 648.180054 580.969971 653.890015 C 580.969971 653.890015 713.75 661.560059 770.810059 631.47998 C 770.810059 631.47998 832.060059 594.550049 704.609985 580.469971 Z"/>
</svg>
