<?xml version="1.0" encoding="UTF-8"?><svg id="Layer_1" xmlns="http://www.w3.org/2000/svg" width="2000" height="2000" xmlns:xlink="http://www.w3.org/1999/xlink" viewBox="0 0 2000 2000"><defs><style>.cls-1{fill:#14647e;}.cls-1,.cls-2,.cls-3,.cls-4,.cls-5,.cls-6,.cls-7,.cls-8,.cls-9,.cls-10,.cls-11{stroke-width:0px;}.cls-2{fill:url(#linear-gradient-6);}.cls-3{fill:url(#linear-gradient-5);}.cls-4{fill:#153576;}.cls-5{fill:url(#linear-gradient-2);}.cls-6{fill:#06946a;}.cls-7{fill:url(#linear-gradient-3);}.cls-12{fill:none;stroke:url(#linear-gradient);stroke-miterlimit:10;stroke-width:.79px;}.cls-8{fill:#0f8b73;}.cls-9{fill:#0d956f;}.cls-10{fill:#18719c;}.cls-11{fill:url(#linear-gradient-4);}</style><linearGradient id="linear-gradient" x1="1186.58" y1="915.68" x2="1187.57" y2="915.68" gradientUnits="userSpaceOnUse"><stop offset="0" stop-color="#133678"/><stop offset="1" stop-color="#0a7f79"/></linearGradient><linearGradient id="linear-gradient-2" x1="638.39" y1="810.25" x2="1354.43" y2="810.25" xlink:href="#linear-gradient"/><linearGradient id="linear-gradient-3" x1="767.31" y1="848.63" x2="1375.83" y2="848.63" gradientUnits="userSpaceOnUse"><stop offset="0" stop-color="#133678"/><stop offset="1" stop-color="#1a9372"/></linearGradient><linearGradient id="linear-gradient-4" x1="965.8" y1="998.17" x2="1293.5" y2="998.17" gradientUnits="userSpaceOnUse"><stop offset="0" stop-color="#134278"/><stop offset="1" stop-color="#108ca6"/></linearGradient><linearGradient id="linear-gradient-5" x1="994.62" y1="1000.19" x2="1236.59" y2="1000.19" gradientUnits="userSpaceOnUse"><stop offset="0" stop-color="#0b8fa6"/><stop offset="1" stop-color="#108ca6"/></linearGradient><linearGradient id="linear-gradient-6" x1="1154.98" y1="1082.62" x2="1359.54" y2="1082.62" xlink:href="#linear-gradient-5"/></defs><path class="cls-4" d="M281.29,1371.2l78.03-173.39h31.71l78.27,173.39h-33.69l-67.13-156.3h12.88l-66.88,156.3h-33.19ZM317.21,1331.07l8.67-25.27h93.63l8.67,25.27h-110.97Z"/><path class="cls-4" d="M488.37,1371.2v-132.27h29.48v35.67l-5.2-10.9c4.62-8.42,11.35-14.9,20.19-19.44,8.83-4.54,19.03-6.81,30.59-6.81,10.57,0,20.02,2.07,28.36,6.19,8.34,4.13,14.9,10.45,19.69,18.95,4.79,8.51,7.18,19.44,7.18,32.82v75.8h-30.96v-71.83c0-11.72-2.77-20.47-8.3-26.26-5.54-5.78-13.25-8.67-23.16-8.67-7.27,0-13.71,1.49-19.32,4.46-5.62,2.97-9.95,7.39-13,13.25-3.06,5.86-4.58,13.25-4.58,22.17v66.88h-30.96Z"/><path class="cls-4" d="M714.27,1365.25c-12.55,0-23.9-2.68-34.06-8.05-10.16-5.36-18.17-12.84-24.03-22.42-5.86-9.58-8.79-20.81-8.79-33.69s2.93-23.86,8.79-33.44c5.86-9.58,13.87-17.01,24.03-22.29,10.16-5.28,21.51-7.93,34.06-7.93,11.23,0,21.3,2.23,30.22,6.69,8.92,4.46,16.06,11.39,21.43,20.81,5.36,9.41,8.05,21.47,8.05,36.16s-2.69,26.79-8.05,36.29c-5.37,9.5-12.51,16.51-21.43,21.05-8.92,4.54-18.99,6.81-30.22,6.81ZM718.24,1420.99c-12.22,0-24.15-1.61-35.79-4.83-11.64-3.22-21.18-7.89-28.61-14l13.87-23.28c5.78,4.79,13.09,8.63,21.92,11.52,8.83,2.89,17.79,4.33,26.88,4.33,14.53,0,25.18-3.34,31.95-10.03,6.77-6.69,10.16-16.72,10.16-30.1v-23.53l2.48-29.97-.99-29.97v-32.2h29.48v112.21c0,23.94-6.11,41.57-18.33,52.88-12.22,11.31-29.89,16.97-53.01,16.97ZM718.98,1339c7.76,0,14.7-1.61,20.81-4.83,6.11-3.22,10.86-7.68,14.24-13.38,3.38-5.7,5.08-12.26,5.08-19.69s-1.69-14-5.08-19.69c-3.39-5.7-8.14-10.07-14.24-13.13-6.11-3.05-13.05-4.58-20.81-4.58s-14.74,1.53-20.93,4.58c-6.19,3.06-10.98,7.43-14.37,13.13-3.39,5.7-5.08,12.26-5.08,19.69s1.69,14,5.08,19.69c3.38,5.7,8.17,10.16,14.37,13.38,6.19,3.22,13.17,4.83,20.93,4.83Z"/><path class="cls-4" d="M830.2,1371.2v-183.79h30.96v183.79h-30.96Z"/><path class="cls-4" d="M963.96,1372.93c-14.7,0-27.54-2.93-38.52-8.79-10.98-5.86-19.49-13.91-25.51-24.15-6.03-10.24-9.04-21.88-9.04-34.93s2.93-24.89,8.79-35.05c5.86-10.16,13.95-18.12,24.27-23.9,10.32-5.78,22.08-8.67,35.3-8.67s24.36,2.81,34.43,8.42c10.07,5.62,18,13.54,23.78,23.78,5.78,10.24,8.67,22.29,8.67,36.16,0,1.32-.04,2.81-.12,4.46-.09,1.65-.21,3.22-.37,4.71h-110.23v-20.56h93.88l-12.14,6.44c.16-7.59-1.41-14.28-4.71-20.06-3.3-5.78-7.8-10.32-13.5-13.62-5.7-3.3-12.26-4.95-19.69-4.95s-14.24,1.65-19.94,4.95c-5.7,3.31-10.16,7.89-13.38,13.75-3.22,5.86-4.83,12.76-4.83,20.68v4.95c0,7.93,1.82,14.95,5.45,21.05,3.63,6.11,8.75,10.82,15.36,14.12,6.6,3.31,14.2,4.95,22.79,4.95,7.43,0,14.12-1.15,20.06-3.47,5.95-2.31,11.23-5.95,15.85-10.9l16.59,19.07c-5.94,6.94-13.42,12.26-22.42,15.98-9,3.72-19.28,5.57-30.84,5.57Z"/><path class="cls-4" d="M1055.86,1371.2v-132.27h29.48v36.41l-3.47-10.65c3.96-8.92,10.19-15.69,18.7-20.31,8.5-4.62,19.11-6.94,31.83-6.94v29.48c-1.32-.33-2.56-.53-3.72-.62-1.16-.08-2.31-.12-3.47-.12-11.73,0-21.05,3.43-27.99,10.28-6.94,6.85-10.4,17.05-10.4,30.59v64.15h-30.96Z"/><path class="cls-6" d="M1160.39,1371.2v-173.39h71.34c15.36,0,28.52,2.48,39.51,7.43,10.98,4.95,19.44,12.06,25.39,21.3,5.95,9.25,8.92,20.23,8.92,32.94s-2.97,23.7-8.92,32.94c-5.94,9.25-14.41,16.35-25.39,21.3-10.98,4.95-24.15,7.43-39.51,7.43h-53.5l14.37-15.11v65.15h-32.2ZM1192.59,1309.52l-14.37-15.61h52.02c14.2,0,24.89-3.01,32.08-9.04,7.18-6.03,10.78-14.49,10.78-25.39s-3.59-19.57-10.78-25.51c-7.18-5.95-17.88-8.92-32.08-8.92h-52.02l14.37-15.85v100.32Z"/><path class="cls-6" d="M1373.41,1372.93c-9.91,0-18.58-1.7-26.01-5.08-7.43-3.38-13.17-8.09-17.21-14.12-4.05-6.03-6.07-12.84-6.07-20.44s1.77-14.12,5.33-20.06c3.55-5.95,9.37-10.65,17.46-14.12,8.09-3.47,18.83-5.2,32.2-5.2h38.39v20.56h-36.16c-10.57,0-17.67,1.7-21.3,5.08-3.63,3.39-5.45,7.55-5.45,12.51,0,5.62,2.23,10.07,6.69,13.38,4.46,3.3,10.65,4.95,18.58,4.95s14.41-1.73,20.44-5.2c6.03-3.47,10.36-8.58,13-15.36l5.2,18.58c-2.97,7.76-8.3,13.79-15.98,18.08-7.68,4.3-17.38,6.44-29.11,6.44ZM1415.02,1371.2v-26.75l-1.73-5.7v-46.82c0-9.08-2.72-16.14-8.17-21.18-5.45-5.04-13.71-7.55-24.77-7.55-7.43,0-14.74,1.16-21.92,3.47-7.18,2.31-13.25,5.54-18.21,9.66l-12.14-22.54c7.1-5.45,15.56-9.54,25.39-12.26,9.82-2.72,20.02-4.09,30.59-4.09,19.15,0,33.97,4.58,44.46,13.75,10.49,9.17,15.73,23.33,15.73,42.48v77.53h-29.23Z"/><path class="cls-6" d="M1524.75,1372.93c-11.07,0-21.67-1.45-31.83-4.33-10.16-2.89-18.21-6.4-24.15-10.53l11.89-23.53c5.94,3.8,13.04,6.94,21.3,9.41,8.26,2.48,16.51,3.72,24.77,3.72,9.74,0,16.8-1.32,21.18-3.96,4.37-2.64,6.56-6.19,6.56-10.65,0-3.63-1.49-6.4-4.46-8.3-2.97-1.9-6.85-3.34-11.64-4.33-4.79-.99-10.12-1.9-15.98-2.72-5.86-.82-11.73-1.94-17.59-3.34-5.86-1.4-11.19-3.47-15.98-6.19-4.79-2.72-8.67-6.4-11.64-11.02-2.97-4.62-4.46-10.73-4.46-18.33,0-8.42,2.39-15.73,7.18-21.92,4.79-6.19,11.52-10.98,20.19-14.37,8.67-3.38,18.95-5.08,30.84-5.08,8.92,0,17.92.99,27,2.97,9.08,1.98,16.6,4.79,22.54,8.42l-11.89,23.53c-6.28-3.8-12.59-6.4-18.95-7.8-6.36-1.4-12.67-2.11-18.95-2.11-9.41,0-16.39,1.41-20.93,4.21-4.54,2.81-6.81,6.36-6.81,10.65,0,3.96,1.49,6.94,4.46,8.92,2.97,1.98,6.85,3.55,11.64,4.71,4.79,1.16,10.11,2.1,15.98,2.85,5.86.74,11.68,1.86,17.46,3.34,5.78,1.49,11.1,3.51,15.98,6.07,4.87,2.56,8.79,6.15,11.77,10.78,2.97,4.62,4.46,10.65,4.46,18.08,0,8.26-2.44,15.44-7.31,21.55-4.87,6.11-11.77,10.86-20.68,14.24s-19.57,5.08-31.95,5.08Z"/><path class="cls-6" d="M1652.32,1372.93c-11.07,0-21.67-1.45-31.83-4.33-10.16-2.89-18.21-6.4-24.15-10.53l11.89-23.53c5.94,3.8,13.04,6.94,21.3,9.41,8.26,2.48,16.51,3.72,24.77,3.72,9.74,0,16.8-1.32,21.18-3.96,4.37-2.64,6.56-6.19,6.56-10.65,0-3.63-1.49-6.4-4.46-8.3-2.97-1.9-6.85-3.34-11.64-4.33-4.79-.99-10.12-1.9-15.98-2.72-5.86-.82-11.73-1.94-17.59-3.34-5.86-1.4-11.19-3.47-15.98-6.19-4.79-2.72-8.67-6.4-11.64-11.02-2.97-4.62-4.46-10.73-4.46-18.33,0-8.42,2.39-15.73,7.18-21.92,4.79-6.19,11.52-10.98,20.19-14.37,8.67-3.38,18.95-5.08,30.84-5.08,8.92,0,17.92.99,27,2.97,9.08,1.98,16.6,4.79,22.54,8.42l-11.89,23.53c-6.28-3.8-12.59-6.4-18.95-7.8-6.36-1.4-12.67-2.11-18.95-2.11-9.41,0-16.39,1.41-20.93,4.21-4.54,2.81-6.81,6.36-6.81,10.65,0,3.96,1.49,6.94,4.46,8.92,2.97,1.98,6.85,3.55,11.64,4.71,4.79,1.16,10.11,2.1,15.98,2.85,5.86.74,11.68,1.86,17.46,3.34,5.78,1.49,11.1,3.51,15.98,6.07,4.87,2.56,8.79,6.15,11.77,10.78,2.97,4.62,4.46,10.65,4.46,18.08,0,8.26-2.44,15.44-7.31,21.55-4.87,6.11-11.77,10.86-20.68,14.24s-19.57,5.08-31.95,5.08Z"/><line class="cls-12" x1="1187.43" y1="915.55" x2="1186.72" y2="915.82"/><path class="cls-8" d="M1286.49,800.5h.02s-1.42-19.25-1.42-19.25l-17.87-3.14v11.64h0c-6.3,1.91-10.88,7.76-10.88,14.68,0,8.47,6.87,15.34,15.34,15.34s15.34-6.87,15.34-15.34c0-1.36-.19-2.68-.53-3.93Z"/><path class="cls-5" d="M1295.36,768.98c-136.1-43.66-288.26,91.59-288.26,91.59-91.37,71.9-223.63,96.73-223.63,96.73l-16.17-15.5s69.25-30.78,111.29-110.81c1.3-2.47,2.7-4.89,4.18-7.25,3.89-6.23,14.08-27.02,23.97-84.97,0,0,71.9-10.84,117.56-66.77,0,0,31.39-29.65,45.08-71.33,0,0,58.78,11.41,106.71-21.69,0,0,35.56-24.05,52.72-47.26,2.2-2.97,5.86-4.48,9.5-3.89,17.56,2.79,65.55,15.11,62.75,65.99,0,0-3.42,51.36-81.03,69.05,0,0-102.69,24.34-134.68,83.32,0,0-8.56,20.54-8.56,29.1l14.27-7.99s10.27-63.91,131.82-89.02c0,0,79.32-22.26,90.17-75.9,0,0,15.07-47.47-36.82-76.6-4.93-2.77-10.05-5.11-15.3-7.04l-55.83,4.43c-2.22.17-4.43.41-6.63.75-174.51,27.23-358.5,255.93-358.5,255.93-65.35,70.26-190.29,295.9-201.58,316.37.59.47,1.22.93,1.9,1.36,11.16,7.24,26.12,4.79,34.59-5.46,3.92-4.73,40.11-80.58,40.11-80.58,0,0,18.83,40.52,67.34,13.13,0,0,25.11-15.98,11.41-51.93,0,0,99.3-12.55,190.03-75.9l143.81-90.73s109.57-64.47,202.59,0c0,0-41.09,55.35-67.91,62.77,0,0-18.83,10.27-42.8-14.27,0,0-11.98-19.97-5.14-41.66,0,0-37.09,35.38,10.84,71.9,0,0-60.49,25.68-138.1,4.57,0,0,32.85,28.44,100.36,26.12l18.64-7.19c3.92-1.51,7.93-2.79,11.99-3.88,101.71-27.1,136.37-103.83,136.37-103.83-12.79-10.71-59.06-31.67-59.06-31.67ZM1213.19,531.04c-49.08,69.05-134.68,59.35-134.68,59.35,62.2-43.94,134.68-59.35,134.68-59.35ZM1053.97,604.09c-44.51,105-139.81,120.98-139.81,120.98,21.69-32.53,139.81-120.98,139.81-120.98ZM893.61,749.61c-32.53,135.82-130.68,180.33-130.68,180.33,11.41-38.23,130.68-180.33,130.68-180.33ZM754.18,1007.43c-8.93,0-16.17-7.24-16.17-16.17s7.24-16.17,16.17-16.17,16.17,7.24,16.17,16.17-7.24,16.17-16.17,16.17Z"/><path class="cls-10" d="M1260.93,519l-55.83,4.43c-2.22.17-4.44.37-6.63.75-158.12,27.37-358.5,255.93-358.5,255.93-65.35,70.26-190.29,295.9-201.58,316.37-4.36-3.43-6.43-7.51-7.33-11.21-1.1-4.52-.58-9.29,1.29-13.56,36.56-83.53,116.89-192.31,116.89-192.31,175.74-273.08,372.84-345.47,447.98-363.84,21.23-5.19,43.45-4.02,63.72,3.43Z"/><path class="cls-7" d="M1375.83,792.98c-34.24,83.89-118.7,110.71-118.7,110.71-26.35,7.74-49.57,11.17-69.7,11.86l18.64-7.19c3.92-1.51,7.93-2.79,11.99-3.88,101.71-27.1,136.37-103.83,136.37-103.83-10.04-8.4-40.69-23.12-53.42-29.07-4.2-1.96-8.55-3.57-13.02-4.79-134.16-36.63-280.88,93.78-280.88,93.78-91.37,71.9-223.63,96.73-223.63,96.73l-16.17-15.5,52.83-13.41c4.24-1.01,8.54-1.66,12.88-2.12,48.11-5.14,170.11-84.21,170.11-84.21,70.72-60.49,158.12-90.17,158.12-90.17,134.68-42.23,214.57,41.09,214.57,41.09Z"/><polygon class="cls-1" points="920.44 749.61 910.92 788.67 939.84 863.05 979.79 836.42 943.45 742.83 920.44 749.61"/><polygon class="cls-9" points="920.44 749.61 959.07 850.23 979.79 836.42 943.45 742.83 920.44 749.61"/><path class="cls-11" d="M1291.94,1076.86c-8.27,15.98-66.2,19.62-66.2,19.62-44.51,3.65-100.72,0-100.72,0-96.73-8.91-159.22-172.56-159.22-172.56l40.23-25.68c2.83,6.82,5.71,13.57,8.67,20.21l-20.08,12.6s44.12,95.79,82.74,121.45c2.35,1.56,4.64,3.18,6.88,4.89,12.72,9.75,58.76,40.28,107.26,14.33,0,0,35.95-21.4,45.08-49.36l-9.05-16.91c.71-1.59,1.06-2.5,1.06-2.5l-41.52,5.71c37.8-12.84,70.33-86.74,70.33-86.74l.57,76.25c-5.99,62.84-51.65,85.54-51.65,85.54,48.79,4.85,64.49-12.55,64.49-12.55,9.99-7.13-13.98-16.55-13.98-16.55,47.94,5.14,35.1,22.26,35.1,22.26Z"/><path class="cls-3" d="M1236.59,1022.36c-9.13,27.96-45.08,49.36-45.08,49.36-48.51,25.95-94.54-4.58-107.26-14.33-2.24-1.71-4.53-3.33-6.88-4.89-38.62-25.66-82.74-121.45-82.74-121.45l20.08-12.6c9.58,21.61,19.9,42.07,31.6,60.36,1.67,2.62,3.42,5.2,4.78,7.99,15.3,31.54,47.6,56.62,52.25,58.96,79.83,47.64,117.6-25.58,124.2-40.3l9.05,16.91Z"/><path class="cls-2" d="M1278.62,1045.47s67.34,11.79,42.99,38.42c0,0-28.53,29.29-166.64,35,0,0,132.78,7.67,189.84-22.41,0,0,61.25-36.93-66.2-51.01Z"/></svg>